<svg xmlns="http://www.w3.org/2000/svg" viewBox="0 0 297 210"><rect width="297" height="210" fill="#1d0a30" ry="0"/><path fill="#4d1b7f" d="M0 0s-1 31 24 22C79 2 128 94 141 33c7-33 77 5 47-33H0"/><path fill="#7a2cc8" d="M0 0s1 29 26 19C79 0 128 87 140 32c7-32 63 2 46-32H0"/><path fill="#9c5adb" d="M0 0s1 25 26 16C76-3 127 78 138 31c7-33 49-1 45-31H0"/><path fill="#ad77e1" d="M0 0s5 21 30 12c55-20 95 59 105 17 8-33 38-4 45-29H0"/><path fill="#4d1b7f" d="M297 126s-8-19-27 13c-14 25-15 39-31 45-18 8-71 8-60 26h118z"/><path fill="#7a2cc8" d="M297 127s-8-13-25 15c-14 25-14 37-35 46-18 7-58 7-57 22h117z"/><path fill="#9c5adb" d="M297 128s-9-8-23 17c-14 24-15 37-36 45-18 8-48 6-55 20h114z"/><path fill="#ad77e1" d="M297 130s-8-5-21 18c-13 24-16 37-37 45-18 7-45 6-53 17h111z"/><path fill="#4d1b7f" d="M33 36c-9 2-18 6-8 23 8 13 3 16 6 25 3 10 42-1 35-19-6-13-18-8-20-18-2-15-9-13-13-11z"/><path fill="#7a2cc8" d="M33 38c-8 2-15 6-6 20 8 13 3 16 6 25 2 8 36-2 30-18-5-12-17-8-19-18-2-11-6-10-11-9z"/><path fill="#9c5adb" d="M33 41c-8 2-9 6-3 16 7 11 2 15 5 24 2 6 29-3 25-15-4-11-16-6-18-16-1-9-4-10-9-9z"/><path fill="#ad77e1" d="M33 43c-8 3-6 5 0 14 7 10 1 14 4 22 2 6 25-2 20-13s-16-5-17-15c-1-7-2-9-7-8z"/><rect width="297" height="210" fill="#1d0a30" fill-opacity=".1" ry="0"/><path fill="#4d1b7f" d="M76 131c-2 10 9 25-16 28-26 3-8 40 17 39 30-1 36-19 33-30-5-24 22-16 22-36 1-43-52-26-56-1z"/><path fill="#7a2cc8" d="M81 131c-2 11 7 30-18 33-21 2-10 29 14 28 25 0 31-14 28-25-5-24 22-17 21-34-2-36-42-21-45-2z"/><path fill="#9c5adb" d="M85 133c-2 10 6 31-19 34-15 1-11 21 11 21 21 0 26-10 24-21-4-27 21-18 20-35-2-30-33-16-36 1z"/><path fill="#ad77e1" d="M88 134c-2 10 8 33-17 36-15 1-13 14 6 14 21 0 22-9 21-20-4-25 20-15 19-32-1-22-28-14-29 2z"/><path fill="#4d1b7f" d="M237 0s29 39-11 35c-39-3-24 16-17 23 8 7 11 14 6 29-5 14 27 25 50 16 24-8 32-37 32-37V29s-20 18-23-19c0-5-7-9-14-10z"/><path fill="#7a2cc8" d="M240 0s30 41-11 39c-38-3-23 12-16 18 8 8 11 16 6 30-4 13 22 21 44 12 23-9 34-36 34-36V29s-20 20-25-17c-1-6-8-11-15-12z"/><path fill="#9c5adb" d="M242 0s31 44-10 41c-38-2-20 10-13 17 8 7 8 14 4 28-4 12 18 17 40 9 23-9 34-37 34-37V30s-28 21-29-16c0-5-9-13-16-14z"/><path fill="#ad77e1" d="M244 0s34 47-7 44c-38-2-21 7-14 13 8 7 8 14 4 29-2 9 21 13 36 5 22-11 34-38 34-38V32s-30 20-32-17c0-5-10-14-17-15z"/></svg>