<svg id="icon" xmlns="http://www.w3.org/2000/svg" viewBox="0 0 683 683"><defs><clipPath id="a" clipPathUnits="userSpaceOnUse"><path d="M3249 2736c-184 0-278-144-278-362 0-206 102-360 278-360 198 0 273 182 273 360 0 186-94 362-273 362m-488 540h218v-522h4c59 99 183 160 294 160 312 0 463-245 463-544 0-275-134-534-426-534-134 0-278 34-343 168h-3v-140h-207v1412" clip-rule="evenodd"/></clipPath><clipPath id="b" clipPathUnits="userSpaceOnUse"><path d="M0 0h5120v5120H0z"/></clipPath><clipPath id="c" clipPathUnits="userSpaceOnUse"><path d="M4544 2544c-17 125-105 192-226 192-113 0-271-61-271-372 0-170 72-350 262-350 126 0 214 87 235 233h218c-40-265-199-411-453-411-310 0-480 227-480 528 0 309 162 550 487 550 230 0 425-119 446-370h-218" clip-rule="evenodd"/></clipPath><clipPath id="d" clipPathUnits="userSpaceOnUse"><path d="M0 0h5120v5120H0z"/></clipPath><clipPath id="e" clipPathUnits="userSpaceOnUse"><path d="M1999 1867H364l764 1409h1634l-763-1409" clip-rule="evenodd"/></clipPath><clipPath id="f" clipPathUnits="userSpaceOnUse"><path d="M0 0h5120v5120H0z"/></clipPath></defs><g clip-path="url(#a)" transform="matrix(.15523 0 0 -.15523 -57 738)"><g clip-path="url(#b)"><path d="M2711 1786h1079v1540H2711z"/></g></g><g clip-path="url(#c)" transform="matrix(.15523 0 0 -.15523 -57 738)"><g clip-path="url(#d)"><path d="M3779 1786h1033v1178H3779z"/></g></g><g clip-path="url(#e)" transform="matrix(.15523 0 0 -.15523 -57 738)"><g clip-path="url(#f)"><path d="M314 1817h2498v1509H314z"/></g></g></svg>