<svg id="icon" xmlns="http://www.w3.org/2000/svg" viewBox="0 0 72.23 72.23"><path d="M70.85 32.01L38.77 4.54l-.31-.22-.25-.18-.38-.19c-.1-.04-.2-.1-.3-.13-.12-.05-.25-.07-.37-.1a4.18 4.18 0 00-.79-.13l-.25-.02c-.13 0-.25.02-.37.03l-.36.03c-.12.02-.23.06-.34.1-.12.02-.25.05-.37.1l-.3.14c-.13.06-.25.11-.37.18l-.28.2c-.09.06-.18.12-.27.2L1.38 32A3.9 3.9 0 001 37.6a4.09 4.09 0 005.68.37l2.77-2.37v23.18c0 5.46 4.53 9.9 10.1 9.9h6.03a4 4 0 004.03-3.96V46.09c0-1.1.92-2 2.04-2h8.93c1.12 0 2.04.9 2.04 2v18.18c0 .27.03.53.08.8l.1.46a4.01 4.01 0 003.95 3.15h5.92c5.58 0 10.11-4.44 10.11-9.9V35.59l2.77 2.37a4.07 4.07 0 005.68-.38 3.9 3.9 0 00-.38-5.57z"/></svg>