<svg id="icon" xmlns="http://www.w3.org/2000/svg" viewBox="0 0 396 396"><path d="M365 81c-2-30-27-53-58-53H58C26 28 0 54 0 86v224c0 32 26 58 58 58h280c32 0 58-26 58-58V132c0-22-13-41-31-51zm-31 229c0 15-12 26-27 26H58c-15 0-27-11-27-26V86c0-15 12-27 27-27h249c15 0 27 12 27 27v224z"/><path d="M63 145h1c4 0 8-4 8-8v-29l24 34c2 2 4 3 7 3h1c5 0 8-4 8-8V83c0-4-3-8-8-8s-8 4-8 8v29L71 79c-1-3-4-4-6-4h-2c-5 0-8 4-8 8v54c0 4 3 8 8 8zM162 129h-25v-11h21c4 0 8-4 8-8v-1c0-4-4-8-8-8h-21v-9h24c5 0 8-3 8-8v-1c0-4-3-8-8-8h-33c-4 0-8 4-8 8v54c0 4 4 8 8 8h34a8 8 0 100-16zM199 145h1c3 0 7-2 8-5l10-31 10 31c1 3 4 5 8 5h1c3 0 6-2 7-5l19-54a8 8 0 00-8-11h-1c-3 0-7 2-8 6l-10 30-10-30c-1-4-4-6-8-6h-1c-3 0-6 2-7 6l-11 30-10-30c-1-4-4-6-7-6h-1a8 8 0 00-8 11l18 54c1 3 4 5 8 5zM289 145c19 0 27-10 27-21 0-16-14-20-23-23s-10-4-10-6c0-1 3-3 8-3 3 0 7 1 10 3s8 1 11-3v-1a8 8 0 00-3-11c-5-3-11-5-18-5-17 0-25 10-25 20 0 16 13 20 22 22 10 3 11 5 11 7 0 3-5 4-10 4-4 0-9-2-11-4l-6-3-6 3a8 8 0 000 12c6 5 15 9 23 9zM147 169H70a16 16 0 000 31h77a16 16 0 000-31zM147 221H70a16 16 0 000 31h77a16 16 0 000-31zM147 273H70a16 16 0 000 32h77a16 16 0 000-32zM307 167H187c-5 0-9 4-9 9v122c0 5 4 9 9 9h120c5 0 9-4 9-9V176c0-5-4-9-9-9z"/></svg>